<?xml version="1.0" encoding="UTF-8"?>
<svg id="Layer_1" data-name="Layer 1" xmlns="http://www.w3.org/2000/svg" viewBox="0 0 168.87 121.28">
  <defs>
    <style>
      .cls-1 {
        letter-spacing: 0em;
      }

      .cls-2 {
        letter-spacing: 0em;
      }

      .cls-3 {
        fill: #ed1c24;
      }

      .cls-4 {
        fill: #00a651;
      }

      .cls-5, .cls-6 {
        fill: #231f20;
      }

      .cls-7 {
        letter-spacing: 0em;
      }

      .cls-8 {
        stroke-width: 2px;
      }

      .cls-8, .cls-9, .cls-10, .cls-11, .cls-12, .cls-13, .cls-14, .cls-15 {
        stroke-miterlimit: 10;
      }

      .cls-8, .cls-10 {
        fill: #fff;
      }

      .cls-8, .cls-10, .cls-11, .cls-14 {
        stroke: #231f20;
      }

      .cls-9 {
        stroke-dasharray: 0 0 1.96 1.96;
      }

      .cls-9, .cls-11, .cls-12, .cls-13, .cls-14, .cls-15 {
        fill: none;
      }

      .cls-9, .cls-12, .cls-15 {
        stroke: #00a651;
      }

      .cls-13 {
        stroke: #ed1c24;
      }

      .cls-6 {
        font-family: MyriadPro-Regular, 'Myriad Pro';
        font-size: 10.93px;
      }

      .cls-14, .cls-15 {
        stroke-dasharray: 0 0 2.07 2.07;
      }
    </style>
  </defs>
  <circle class="cls-8" cx="23.42" cy="25.43" r="22.42"/>
  <circle class="cls-8" cx="23.42" cy="97.85" r="22.42"/>
  <circle class="cls-8" cx="94.46" cy="97.04" r="22.42"/>
  <circle class="cls-8" cx="94.93" cy="25.43" r="22.42"/>
  <text class="cls-6" transform="translate(85.12 27.87)"><tspan class="cls-7" x="0" y="0">C</tspan><tspan x="6.39" y="0">A1</tspan></text>
  <text class="cls-6" transform="translate(14.08 27.87)"><tspan class="cls-7" x="0" y="0">C</tspan><tspan x="6.39" y="0">A3</tspan></text>
  <text class="cls-6" transform="translate(10.14 101.45)"><tspan x="0" y="0">EC(in)</tspan></text>
  <text class="cls-6" transform="translate(78.14 102.36)"><tspan x="0" y="0">EC(out)</tspan></text>
  <g>
    <path class="cls-13" d="m45.85,25.43h20.63"/>
    <path class="cls-3" d="m72.51,25.43c-2.84,1.05-6.36,2.85-8.55,4.76l1.72-4.76-1.72-4.75c2.18,1.9,5.71,3.7,8.55,4.75Z"/>
  </g>
  <g>
    <path class="cls-5" d="m23.42,74.51v-26.66"/>
    <g>
      <path class="cls-11" d="m23.42,74.51v-1"/>
      <path class="cls-14" d="m23.42,71.45c0-5.17,0-10.35,0-15.52"/>
      <path class="cls-11" d="m23.42,54.89v-1"/>
      <path class="cls-5" d="m23.42,47.85c1.05,2.84,2.85,6.36,4.76,8.55l-4.76-1.72-4.75,1.72c1.9-2.18,3.7-5.71,4.75-8.55Z"/>
    </g>
  </g>
  <g>
    <path class="cls-5" d="m94.46,47.85v26.66"/>
    <g>
      <path class="cls-12" d="m94.46,47.85v1"/>
      <path class="cls-15" d="m94.46,50.92c0,5.17,0,10.35,0,15.52"/>
      <path class="cls-12" d="m94.46,67.48v1"/>
      <path class="cls-4" d="m94.46,74.51c-1.05-2.84-2.85-6.36-4.76-8.55l4.76,1.72,4.75-1.72c-1.9,2.18-3.7,5.71-4.75,8.55Z"/>
    </g>
  </g>
  <g>
    <path class="cls-5" d="m23.42,75.43c18.06-11.92,36.12-23.85,54.18-35.77"/>
    <g>
      <path class="cls-12" d="m23.42,75.43c.28-.18.56-.37.83-.55"/>
      <path class="cls-9" d="m25.9,73.8c15.01-9.91,30.01-19.81,45.02-29.72"/>
      <path class="cls-12" d="m71.73,43.54c.28-.18.56-.37.83-.55"/>
      <path class="cls-4" d="m77.6,39.66c-1.79,2.44-3.74,5.89-4.51,8.68l-1.18-4.92-4.06-3.02c2.87.39,6.8-.05,9.75-.74Z"/>
    </g>
  </g>
  <g>
    <path class="cls-5" d="m126.68,4.75c8.89,0,17.77,0,26.66,0"/>
    <g>
      <path class="cls-11" d="m126.68,4.75h1"/>
      <path class="cls-14" d="m129.75,4.75h15.52"/>
      <path class="cls-11" d="m146.3,4.75h1"/>
      <path class="cls-5" d="m153.34,4.75c-2.84,1.05-6.36,2.85-8.55,4.76l1.72-4.76-1.72-4.75c2.18,1.9,5.71,3.7,8.55,4.75Z"/>
    </g>
  </g>
  <g>
    <path class="cls-5" d="m129.77,21.35v-4.56h-.74v-.73h.74v-.29c0-1.4.82-2.31,2.31-2.31.49,0,1.07.15,1.35.35l-.27.73c-.23-.16-.65-.31-1.12-.31-1.02,0-1.31.71-1.31,1.55v.26h3.07v5.29h-.95v-4.56h-2.12v4.56h-.95Z"/>
    <path class="cls-5" d="m135.84,16.05l.75,1.14c.2.29.36.57.54.86h.03c.17-.32.35-.59.53-.88l.74-1.13h1.04l-1.81,2.56,1.86,2.74h-1.09l-.78-1.19c-.21-.31-.38-.6-.57-.92h-.02c-.17.32-.36.6-.56.92l-.77,1.19h-1.06l1.88-2.7-1.79-2.59h1.07Z"/>
    <path class="cls-5" d="m140.83,18.87c.02,1.3.85,1.84,1.82,1.84.69,0,1.1-.12,1.47-.27l.16.69c-.34.15-.92.33-1.76.33-1.63,0-2.6-1.07-2.6-2.67s.94-2.86,2.48-2.86c1.73,0,2.19,1.52,2.19,2.5,0,.2-.02.35-.03.45h-3.72Zm2.82-.69c.01-.61-.25-1.56-1.33-1.56-.97,0-1.4.9-1.48,1.56h2.81Z"/>
    <path class="cls-5" d="m150.34,13.58v6.4c0,.47.01,1.01.04,1.37h-.86l-.04-.92h-.02c-.29.59-.94,1.04-1.8,1.04-1.28,0-2.27-1.08-2.27-2.69-.01-1.76,1.08-2.84,2.38-2.84.81,0,1.36.38,1.6.81h.02v-3.16h.96Zm-.96,4.63c0-.12-.01-.29-.04-.41-.14-.61-.67-1.12-1.39-1.12-1,0-1.59.88-1.59,2.05,0,1.07.52,1.96,1.56,1.96.65,0,1.24-.43,1.41-1.15.03-.13.04-.26.04-.42v-.92Z"/>
    <path class="cls-5" d="m121.72,26.88c-.8,1.07-1.38,2.49-1.38,4.47s.6,3.35,1.38,4.44h-.75c-.69-.91-1.43-2.31-1.43-4.44.01-2.16.74-3.56,1.43-4.47h.75Z"/>
    <path class="cls-5" d="m122.73,30.83c0-.62-.01-1.16-.04-1.65h.84l.03,1.04h.04c.24-.71.82-1.16,1.47-1.16.11,0,.19.01.27.03v.91c-.1-.02-.2-.03-.33-.03-.68,0-1.16.51-1.29,1.24-.02.13-.04.29-.04.45v2.82h-.95v-3.64Z"/>
    <path class="cls-5" d="m129.18,34.47l-.08-.67h-.03c-.29.42-.86.79-1.62.79-1.07,0-1.62-.75-1.62-1.52,0-1.28,1.14-1.98,3.18-1.97v-.11c0-.44-.12-1.22-1.2-1.22-.49,0-1.01.15-1.38.39l-.22-.63c.44-.28,1.07-.47,1.74-.47,1.62,0,2.01,1.11,2.01,2.17v1.98c0,.46.02.91.09,1.27h-.88Zm-.14-2.7c-1.05-.02-2.24.16-2.24,1.19,0,.62.42.92.91.92.69,0,1.13-.44,1.28-.89.03-.1.05-.21.05-.31v-.92Z"/>
    <path class="cls-5" d="m131.52,30.61c0-.55-.01-1-.04-1.43h.85l.05.88h.02c.26-.5.88-1,1.75-1,.73,0,1.87.44,1.87,2.25v3.16h-.96v-3.05c0-.85-.32-1.56-1.23-1.56-.63,0-1.13.45-1.29.99-.04.12-.07.28-.07.45v3.18h-.96v-3.86Z"/>
    <path class="cls-5" d="m142.16,26.7v6.4c0,.47.01,1.01.04,1.37h-.86l-.04-.92h-.02c-.3.59-.94,1.04-1.81,1.04-1.28,0-2.26-1.08-2.26-2.69-.01-1.76,1.08-2.84,2.37-2.84.81,0,1.36.38,1.6.81h.02v-3.16h.96Zm-.96,4.63c0-.12-.01-.29-.04-.41-.14-.61-.67-1.12-1.39-1.12-1,0-1.59.88-1.59,2.05,0,1.07.53,1.96,1.56,1.96.65,0,1.24-.43,1.41-1.15.03-.13.04-.26.04-.42v-.92Z"/>
    <path class="cls-5" d="m148.55,31.78c0,1.96-1.36,2.81-2.64,2.81-1.43,0-2.54-1.05-2.54-2.72,0-1.77,1.16-2.81,2.63-2.81s2.55,1.11,2.55,2.72Zm-4.2.05c0,1.16.67,2.04,1.61,2.04s1.61-.86,1.61-2.06c0-.9-.45-2.04-1.59-2.04s-1.63,1.05-1.63,2.06Z"/>
    <path class="cls-5" d="m149.76,30.61c0-.55-.01-1-.04-1.43h.84l.04.85h.03c.29-.5.79-.97,1.66-.97.72,0,1.27.44,1.5,1.06h.02c.16-.29.37-.53.59-.69.32-.24.67-.37,1.17-.37.7,0,1.74.46,1.74,2.3v3.12h-.94v-3c0-1.02-.37-1.63-1.15-1.63-.55,0-.97.41-1.14.88-.04.13-.08.31-.08.48v3.27h-.94v-3.17c0-.84-.37-1.46-1.1-1.46-.6,0-1.04.48-1.19.96-.05.14-.08.31-.08.47v3.19h-.94v-3.86Z"/>
    <path class="cls-5" d="m158.3,35.79c.78-1.08,1.38-2.51,1.38-4.48s-.59-3.36-1.38-4.44h.74c.7.9,1.43,2.3,1.43,4.45s-.73,3.53-1.43,4.46h-.74Z"/>
  </g>
  <g>
    <path class="cls-5" d="m126.68,48.94h26.66"/>
    <g>
      <path class="cls-12" d="m126.68,48.94h1"/>
      <path class="cls-15" d="m129.75,48.94c5.17,0,10.35,0,15.52,0"/>
      <path class="cls-12" d="m146.3,48.94h1"/>
      <path class="cls-4" d="m153.34,48.94c-2.84,1.05-6.36,2.85-8.55,4.76l1.72-4.76-1.72-4.75c2.18,1.9,5.71,3.7,8.55,4.75Z"/>
    </g>
  </g>
  <g>
    <path class="cls-5" d="m129.77,65.69v-4.56h-.74v-.73h.74v-.29c0-1.4.82-2.31,2.31-2.31.49,0,1.07.15,1.35.35l-.27.73c-.23-.16-.65-.31-1.12-.31-1.02,0-1.31.71-1.31,1.55v.26h3.07v5.29h-.95v-4.56h-2.12v4.56h-.95Z"/>
    <path class="cls-5" d="m135.84,60.4l.75,1.14c.2.29.36.57.54.86h.03c.17-.32.35-.59.53-.87l.74-1.13h1.04l-1.81,2.56,1.86,2.74h-1.09l-.78-1.19c-.21-.31-.38-.6-.57-.92h-.02c-.17.32-.36.6-.56.92l-.77,1.19h-1.06l1.88-2.7-1.79-2.59h1.07Z"/>
    <path class="cls-5" d="m140.83,63.22c.02,1.3.85,1.84,1.82,1.84.69,0,1.1-.12,1.47-.27l.16.69c-.34.15-.92.33-1.76.33-1.63,0-2.6-1.07-2.6-2.67s.94-2.85,2.48-2.85c1.73,0,2.19,1.52,2.19,2.49,0,.2-.02.35-.03.45h-3.72Zm2.82-.69c.01-.61-.25-1.56-1.33-1.56-.97,0-1.4.9-1.48,1.56h2.81Z"/>
    <path class="cls-5" d="m150.34,57.92v6.4c0,.47.01,1.01.04,1.37h-.86l-.04-.92h-.02c-.29.59-.94,1.04-1.8,1.04-1.28,0-2.27-1.08-2.27-2.69-.01-1.76,1.08-2.84,2.38-2.84.81,0,1.36.38,1.6.81h.02v-3.16h.96Zm-.96,4.63c0-.12-.01-.29-.04-.41-.14-.61-.67-1.12-1.39-1.12-1,0-1.59.88-1.59,2.05,0,1.07.52,1.96,1.56,1.96.65,0,1.24-.43,1.41-1.15.03-.13.04-.26.04-.42v-.92Z"/>
    <path class="cls-5" d="m114.03,71.22c-.8,1.07-1.38,2.49-1.38,4.47s.6,3.35,1.38,4.44h-.75c-.69-.91-1.43-2.31-1.43-4.44.01-2.16.74-3.56,1.43-4.47h.75Z"/>
    <path class="cls-5" d="m115.05,75.25c0-.68-.02-1.23-.04-1.73h.86l.04.91h.02c.39-.65,1.02-1.03,1.88-1.03,1.28,0,2.24,1.08,2.24,2.69,0,1.9-1.16,2.84-2.41,2.84-.7,0-1.31-.31-1.63-.83h-.02v2.88h-.95v-5.73Zm.95,1.41c0,.14.02.27.04.39.17.67.75,1.13,1.44,1.13,1.02,0,1.61-.83,1.61-2.05,0-1.06-.56-1.97-1.58-1.97-.66,0-1.27.47-1.46,1.19-.03.12-.07.26-.07.39v.91Z"/>
    <path class="cls-5" d="m121.27,75.17c0-.62-.01-1.16-.04-1.65h.84l.03,1.04h.04c.24-.71.82-1.16,1.47-1.16.11,0,.19.01.27.03v.91c-.1-.02-.2-.03-.33-.03-.68,0-1.16.51-1.29,1.24-.02.13-.04.29-.04.45v2.82h-.95v-3.64Z"/>
    <path class="cls-5" d="m125.27,76.34c.02,1.3.85,1.84,1.82,1.84.69,0,1.1-.12,1.47-.27l.16.69c-.34.15-.92.33-1.76.33-1.63,0-2.6-1.07-2.6-2.67s.94-2.86,2.48-2.86c1.73,0,2.19,1.52,2.19,2.5,0,.2-.02.35-.03.45h-3.72Zm2.82-.69c.01-.61-.25-1.56-1.33-1.56-.97,0-1.4.9-1.48,1.56h2.81Z"/>
    <path class="cls-5" d="m132.75,75.5v.71h-2.7v-.71h2.7Z"/>
    <path class="cls-5" d="m135.04,72v1.52h1.38v.73h-1.38v2.86c0,.66.19,1.03.72,1.03.25,0,.44-.03.56-.07l.04.72c-.19.08-.48.13-.85.13-.45,0-.81-.14-1.04-.4-.27-.29-.37-.75-.37-1.38v-2.89h-.82v-.73h.82v-1.27l.94-.25Z"/>
    <path class="cls-5" d="m137.5,75.17c0-.62-.01-1.16-.04-1.65h.84l.03,1.04h.04c.24-.71.82-1.16,1.47-1.16.11,0,.19.01.27.03v.91c-.1-.02-.2-.03-.33-.03-.68,0-1.16.51-1.29,1.24-.02.13-.04.29-.04.45v2.82h-.95v-3.64Z"/>
    <path class="cls-5" d="m143.95,78.81l-.08-.67h-.03c-.29.42-.86.79-1.62.79-1.07,0-1.62-.75-1.62-1.52,0-1.28,1.14-1.98,3.18-1.97v-.11c0-.44-.12-1.22-1.2-1.22-.49,0-1.01.15-1.38.39l-.22-.63c.44-.28,1.07-.47,1.74-.47,1.62,0,2.01,1.11,2.01,2.17v1.98c0,.46.02.91.09,1.27h-.88Zm-.14-2.7c-1.05-.02-2.24.16-2.24,1.19,0,.62.42.92.91.92.69,0,1.13-.44,1.28-.89.03-.1.05-.21.05-.31v-.92Z"/>
    <path class="cls-5" d="m147.36,72.03c.01.33-.23.59-.61.59-.34,0-.58-.26-.58-.59s.25-.6.6-.6.59.26.59.6Zm-1.07,6.78v-5.29h.96v5.29h-.96Z"/>
    <path class="cls-5" d="m148.85,74.95c0-.55-.01-1-.04-1.43h.85l.05.88h.02c.26-.5.88-1,1.75-1,.73,0,1.87.44,1.87,2.25v3.16h-.96v-3.05c0-.85-.32-1.56-1.23-1.56-.63,0-1.13.45-1.29.99-.04.12-.07.28-.07.45v3.18h-.96v-3.86Z"/>
    <path class="cls-5" d="m155.45,76.34c.02,1.3.85,1.84,1.82,1.84.69,0,1.1-.12,1.47-.27l.16.69c-.34.15-.92.33-1.76.33-1.63,0-2.6-1.07-2.6-2.67s.94-2.86,2.48-2.86c1.73,0,2.19,1.52,2.19,2.5,0,.2-.02.35-.03.45h-3.72Zm2.82-.69c.01-.61-.25-1.56-1.33-1.56-.97,0-1.4.9-1.48,1.56h2.81Z"/>
    <path class="cls-5" d="m164.97,71.04v6.4c0,.47.01,1.01.04,1.37h-.86l-.04-.92h-.02c-.29.59-.94,1.04-1.8,1.04-1.28,0-2.27-1.08-2.27-2.69-.01-1.76,1.08-2.84,2.38-2.84.81,0,1.36.38,1.6.81h.02v-3.16h.96Zm-.96,4.63c0-.12-.01-.29-.04-.41-.14-.61-.67-1.12-1.39-1.12-1,0-1.59.88-1.59,2.05,0,1.07.52,1.96,1.56,1.96.65,0,1.24-.43,1.41-1.15.03-.13.04-.26.04-.42v-.92Z"/>
    <path class="cls-5" d="m165.98,80.14c.78-1.08,1.38-2.51,1.38-4.48s-.59-3.36-1.38-4.44h.74c.7.9,1.43,2.3,1.43,4.45s-.73,3.53-1.43,4.46h-.74Z"/>
  </g>
  <g>
    <path class="cls-5" d="m126.68,93.13c8.89,0,17.77,0,26.66,0"/>
    <g>
      <path class="cls-13" d="m126.68,93.13h20.63"/>
      <path class="cls-3" d="m153.34,93.13c-2.84,1.05-6.36,2.85-8.55,4.76l1.72-4.76-1.72-4.75c2.18,1.9,5.71,3.7,8.55,4.75Z"/>
    </g>
  </g>
  <text class="cls-6" transform="translate(128.8 111.55)"><tspan class="cls-2" x="0" y="0">B</tspan><tspan class="cls-1" x="5.83" y="0">T</tspan><tspan x="11.2" y="0">SP</tspan></text>
  <rect class="cls-10" x="35.67" y="50.6" width="29.68" height="14.18"/>
  <text class="cls-6" transform="translate(46.51 61.72)"><tspan x="0" y="0">IS</tspan></text>
</svg>